<svg width="1440" height="1024" viewBox="0 0 1440 1024" fill="none" xmlns="http://www.w3.org/2000/svg">
<g id="24">
<rect width="1440" height="1024" fill="white"/>
<rect id="background" width="1440" height="1024" fill="white"/>
<g id="everything">
<g id="slogan">
<g id="your">
<path id="y-your" d="M477.902 801.399H468.632L477.807 792.272L465 778.601H474.08L482.574 787.991L491.862 778.601H500.886L477.902 801.399Z" fill="#F6DE23"/>
<path id="o-your" d="M514.941 802C506.712 802 498.256 798.695 498.256 790C498.256 781.305 506.675 778 514.941 778C523.208 778 531.645 781.343 531.645 790C531.645 798.657 523.303 802 514.941 802ZM514.941 782.695C508.888 782.695 505.01 785.38 505.01 790C505.01 794.62 508.888 797.305 514.941 797.305C520.995 797.305 524.835 794.676 524.835 790C524.835 785.324 520.938 782.695 514.941 782.695Z" fill="#F6DE23"/>
<path id="u-your" d="M565.28 792.404C565.28 799.916 556.597 802 550.146 802C543.695 802 534.918 799.972 534.918 792.404V778.601H541.331V791.596C541.331 795.146 544.868 797.23 550.146 797.23C555.424 797.23 558.98 795.071 558.98 791.596V778.601H565.374L565.28 792.404Z" fill="#F6DE23"/>
<path id="r-your" d="M590.818 801.399L582.949 792.911H576.006V801.399H569.593V778.601H590.686C595.075 778.601 598.82 780.873 598.82 785.606C598.82 789.906 595.623 792.366 591.575 792.573H590.553L599.369 801.399H590.818ZM589.191 783.409H575.949V788.385H589.362C591.253 788.385 592.502 787.596 592.502 785.812C592.502 784.028 591.197 783.409 589.191 783.409Z" fill="#F6DE23"/>
</g>
<g id="space">
<path id="s-space" d="M625.38 802C620.73 802.119 616.091 801.485 611.646 800.122L613.046 795.315C617.034 796.628 621.217 797.263 625.418 797.192C631.642 797.192 634.157 796.31 634.157 794.751C634.157 793.192 631.925 792.779 625.758 792.31C616.451 791.615 611.759 790.15 611.759 785.08C611.759 780.385 617.435 777.944 627.045 777.944C631.417 777.81 635.778 778.446 639.927 779.822L638.565 784.629C634.861 783.306 630.943 782.669 627.007 782.751C621.464 782.751 618.362 783.296 618.362 784.629C618.362 785.962 620.253 786.507 626.099 786.92C635.557 787.596 640.665 788.648 640.665 793.962C640.665 799.878 634.479 802 625.38 802Z" fill="#F6DE23"/>
<path id="p-space" d="M665.182 794.808H650.596V801.399H644.202V778.601H665.011C670.119 778.601 673.978 781.211 673.978 786.526C673.978 791.84 670.251 794.808 665.182 794.808ZM663.422 783.371H650.596V790H663.574C664.052 790.042 664.535 789.984 664.99 789.832C665.445 789.679 665.864 789.435 666.219 789.113C666.574 788.792 666.859 788.402 667.055 787.966C667.251 787.53 667.354 787.059 667.357 786.582C667.508 784.46 665.73 783.371 663.422 783.371V783.371Z" fill="#F6DE23"/>
<path id="a-space" d="M699.403 801.399L696.925 797.343H680.864L678.31 801.399H670.516L685.839 778.413H692.176L707.348 801.399H699.403ZM688.885 784.122L683.645 792.535H694.106L688.885 784.122Z" fill="#F6DE23"/>
<path id="c-space" d="M723.882 802C715.161 802 706.856 798.77 706.856 790C706.856 780.61 716.693 778 723.882 778C728.597 777.855 733.287 778.747 737.615 780.61L736.329 785.437C732.586 783.826 728.548 783.001 724.468 783.014C717.45 783.014 713.439 785.568 713.439 790.038C713.439 794.507 717.658 797.005 724.468 797.042C728.552 797.062 732.597 796.244 736.348 794.639L737.653 799.408C733.296 801.218 728.604 802.101 723.882 802Z" fill="#F6DE23"/>
<path id="e-space" d="M740.983 801.399V778.601H768.356V783.446H747.377V786.864H768.356V791.502H747.377V796.573H768.356V801.399H740.983Z" fill="#F6DE23"/>
</g>
<g id="for">
<path id="f-for" d="M787.935 791.972V801.362H782.109V778.601H795.691V783.24H787.935V787.465H795.691V791.972H787.935Z" fill="#F6DE23"/>
<path id="o-for" d="M806.588 802C800.156 802 797.81 796.366 797.81 790C797.81 783.634 800.231 778 806.588 778C812.944 778 815.384 783.634 815.384 790C815.384 796.366 812.925 802 806.588 802ZM806.588 782.695C804.204 782.695 803.636 785.643 803.636 790C803.636 794.357 804.242 797.305 806.588 797.305C808.933 797.305 809.558 794.376 809.558 790C809.558 785.624 808.914 782.695 806.588 782.695Z" fill="#F6DE23"/>
<path id="r-for" d="M829.742 801.399L825.826 792.817H824.634V801.399H818.808V778.601H827.453C832.22 778.601 835.36 781.042 835.36 785.474C835.376 786.806 834.975 788.11 834.212 789.207C833.45 790.303 832.364 791.138 831.104 791.596L836.268 801.399H829.742ZM826.413 783.146H824.521V788.441H825.732C828.134 788.441 829.42 787.578 829.42 785.643C829.42 783.709 828.248 783.146 826.413 783.146Z" fill="#F6DE23"/>
</g>
<g id="creativity">
<path id="c-creativity" d="M864.682 802C855.961 802 847.657 798.77 847.657 790C847.657 780.61 857.494 778 864.682 778C869.398 777.855 874.088 778.747 878.416 780.61L877.13 785.437C873.386 783.826 869.348 783.001 865.269 783.014C858.25 783.014 854.24 785.568 854.24 790.038C854.24 794.507 858.458 797.005 865.269 797.042C869.353 797.062 873.398 796.244 877.149 794.639L878.454 799.408C874.096 801.218 869.405 802.101 864.682 802Z" fill="#F6DE23"/>
<path id="r-creativity" d="M902.989 801.399L895.12 792.911H888.177V801.399H881.783V778.601H902.857C907.246 778.601 910.991 780.873 910.991 785.606C910.991 789.906 907.794 792.366 903.746 792.573H902.725L911.54 801.399H902.989ZM901.362 783.409H888.121V788.385H901.552C903.349 788.385 904.673 787.596 904.673 785.812C904.673 784.028 903.368 783.409 901.362 783.409Z" fill="#F6DE23"/>
<path id="e-creativity" d="M915.172 801.399V778.601H942.564V783.446H921.585V786.864H942.564V791.502H921.585V796.573H942.564V801.399H915.172Z" fill="#F6DE23"/>
<path id="a-creativity" d="M974.08 801.399L971.583 797.343H955.447L952.893 801.399H945.099L960.422 778.413H966.759L982.044 801.399H974.08ZM963.562 784.122L958.303 792.535H968.689L963.562 784.122Z" fill="#F6DE23"/>
<path id="t-creativity" d="M995.135 783.69V801.399H988.76V783.69H975.972V778.601H1007.94V783.69H995.135Z" fill="#F6DE23"/>
<path id="i-creativity" d="M1010.76 801.399V778.601H1017.15V801.399H1010.76Z" fill="#F6DE23"/>
<path id="v-creativity" d="M1041.95 801.606H1035.18L1020.05 778.601H1028.05L1038.61 795.615L1049.26 778.601H1057.13L1041.95 801.606Z" fill="#F6DE23"/>
<path id="i-two-creativity" d="M1059.96 801.399V778.601H1066.36V801.399H1059.96Z" fill="#F6DE23"/>
<path id="t-two-creativity" d="M1088.36 783.69V801.399H1082V783.69H1069.2V778.601H1101.17V783.69H1088.36Z" fill="#F6DE23"/>
<path id="y-creativity" d="M1115.96 801.399H1106.69L1115.85 792.272L1103.04 778.601H1112.18L1120.67 787.991L1129.96 778.601H1138.98L1115.96 801.399Z" fill="#F6DE23"/>
</g>
</g>
<g id="full-logo">
<path id="logo" d="M299.5 381H569.5L436 288.5L288.5 381V556.5H666.5V732H389V481.5C392.167 470.5 407.9 448.5 445.5 448.5C483.1 448.5 494.5 470.5 495.5 481.5V638" stroke="#F6DE23" stroke-width="18"/>
<g id="name">
<g id="appel">
<path id="a" d="M818.014 644.141L807.712 627.362H750.372L739.975 644.141H726.309L774.199 569.018H784.075L831.964 644.141H818.014ZM779.101 581.08L756.412 617.599H801.672L779.101 581.08Z" fill="#44B6E6" stroke="#44B6E6" stroke-width="1.16" stroke-miterlimit="10"/>
<path id="p" d="M865.359 618.594H855.269V644.141H844.967V570.227H865.572C880.375 570.227 888.38 579.872 888.38 593.688C888.38 606.627 880.375 618.594 865.359 618.594ZM863.677 579.54H855.34V609.257H863.559C872.772 609.257 877.769 602.574 877.769 593.569C877.769 584.564 872.819 579.54 863.677 579.54Z" fill="#44B6E6" stroke="#44B6E6" stroke-width="1.16" stroke-miterlimit="10"/>
<path id="p-two" d="M922.888 618.594H912.798V644.141H902.519V570.227H923.124C937.927 570.227 945.932 579.872 945.932 593.688C945.932 606.627 937.927 618.594 922.888 618.594ZM921.135 579.54H912.798V609.257H921.016C930.23 609.257 935.227 602.574 935.227 593.569C935.227 584.564 930.372 579.54 921.159 579.54H921.135Z" fill="#44B6E6" stroke="#44B6E6" stroke-width="1.16" stroke-miterlimit="10"/>
<path id="e" d="M960.072 644.141V570.227H1040.6V580.085H971.44V598.404H1040.6V608.049H971.44V634.259H1040.6V644.141H960.072Z" fill="#44B6E6" stroke="#44B6E6" stroke-width="1.16" stroke-miterlimit="10"/>
<path id="l" d="M1058.38 644.141V570.227H1069.73V634.211H1138.67V644.094L1058.38 644.141Z" fill="#44B6E6" stroke="#44B6E6" stroke-width="1.16" stroke-miterlimit="10"/>
</g>
<g id="farm">
<path id="f" d="M738.53 705.329V740.213H727.257V666.275H807.783V676.157H738.53V695.187H807.712V705.258L738.53 705.329Z" fill="#44B6E6" stroke="#44B6E6" stroke-width="1.16" stroke-miterlimit="10"/>
<path id="a-two" d="M869.74 740.213L865.809 723.624H845.961L842.006 740.213H831.372L850.556 664.853H861.309L880.493 740.213H869.74ZM855.814 680.423L847.927 714.145H863.677L855.814 680.423Z" fill="#44B6E6" stroke="#44B6E6" stroke-width="1.16" stroke-miterlimit="10"/>
<path id="r" d="M983.4 740.213L953.677 708.742H924.759V740.213H913.414V666.275H975.987C988.706 666.275 999.458 673.195 999.458 687.011C999.458 700.827 988.919 708.623 976.106 708.623H967.887L998.677 740.213H983.4ZM973.666 676.039H924.759V699.523H974.637C980.89 699.523 988.351 696.656 988.351 687.224C988.351 679.688 982.098 675.944 973.666 675.944V676.039Z" fill="#44B6E6" stroke="#44B6E6" stroke-width="1.16" stroke-miterlimit="10"/>
<path id="m" d="M1127.21 740.213V684.949L1084.37 716.207H1083.16L1040.74 685.162V740.213H1029.47V664.379H1030.79L1083.94 703.149L1137.09 664.379H1138.51V740.213H1127.21Z" fill="#44B6E6" stroke="#44B6E6" stroke-width="1.16" stroke-miterlimit="10"/>
</g>
</g>
<g id="rainbow">
<path id="orange" d="M300 381H568.5L435.5 288L289 381V557.5H666.5V732H389.5V481.5C389.667 470.5 400.8 448.5 444 448.5C487.2 448.5 496 470.5 495 481.5V605.5" stroke="#F47F13" stroke-width="18"/>
<path id="pink" d="M300.5 382.5H569L435.5 290L289 382.5V558H495.5M495.5 558H665.5V734H389V483.5C388.333 472.333 398.4 450 444 450C489.6 450 497.333 472.333 495.5 483.5V558Z" stroke="#E1347C" stroke-width="20"/>
<path id="purple" d="M299.486 382.292H569.126L434.306 290L289 382.292V558.395H664V734H388.867V479.573C388.201 469.762 398.154 450.139 443.294 450.139C488.434 450.139 496.723 469.762 495.225 479.573V515.991" stroke="#833E75" stroke-width="20"/>
<path id="blue" d="M300 382H568.5L434.5 290L289 382V558H664V734H389V475.5C389.167 466.833 400.6 449.5 445 449.5C489.4 449.5 495 466.5 495 475.5" stroke="#44B6E6" stroke-width="20"/>
</g>
<g id="line">
<rect id="purple-rec" x="485" y="475" width="20" height="41" fill="#833E75"/>
<rect id="pink-rec" x="485" y="516" width="20" height="44" fill="#E1347C"/>
<rect id="orange-rec" x="485" y="560" width="20" height="43" fill="#F47F13"/>
<rect id="yellow-rec" x="485" y="603" width="20" height="37" fill="#F6DE23"/>
</g>
</g>
</g>
</g>
</svg>
