<svg width="1440" height="900" viewBox="0 0 1440 900" fill="none" xmlns="http://www.w3.org/2000/svg">
<g id="18">
<rect width="1440" height="900" fill="#827E73"/>
<g id="logo">
<g id="22">
<path id="Vector" d="M522.079 179.747L565.839 254.964L478.702 254.877L435.011 179.565L522.079 179.747Z" fill="#F0EFEB"/>
<path id="Vector_2" d="M436.985 327.134L393.158 252.057L435.011 179.565L478.702 254.877L436.985 327.134Z" fill="#827E73"/>
<path id="Vector_3" d="M436.985 327.134L523.928 327.557L565.781 255.065L478.702 254.876L436.985 327.134Z" fill="#56544E"/>
</g>
<g id="21">
<path id="Vector_4" d="M606.688 324.747L650.448 399.964L563.312 399.877L519.62 324.565L606.688 324.747Z" fill="#F0EFEB"/>
<path id="Vector_5" d="M521.594 472.134L477.767 397.057L519.621 324.565L563.312 399.877L521.594 472.134Z" fill="#827E73"/>
<path id="Vector_6" d="M521.594 472.134L608.537 472.557L650.39 400.065L563.312 399.876L521.594 472.134Z" fill="#56544E"/>
</g>
<g id="20">
<path id="Vector_7" d="M436.473 179.747L480.234 254.964L393.097 254.877L349.406 179.565L436.473 179.747Z" fill="#F0EFEB"/>
<path id="Vector_8" d="M351.379 327.134L307.553 252.057L349.406 179.565L393.097 254.877L351.379 327.134Z" fill="#827E73"/>
<path id="Vector_9" d="M351.379 327.134L438.323 327.557L480.176 255.065L393.097 254.876L351.379 327.134Z" fill="#56544E"/>
</g>
<g id="19">
<path id="Vector_10" d="M350.484 179.747L394.245 254.964L307.108 254.877L263.417 179.565L350.484 179.747Z" fill="#F0EFEB"/>
<path id="Vector_11" d="M265.39 327.134L221.564 252.057L263.417 179.565L307.108 254.877L265.39 327.134Z" fill="#827E73"/>
<path id="Vector_12" d="M265.39 327.134L352.333 327.557L394.187 255.065L307.108 254.876L265.39 327.134Z" fill="#56544E"/>
</g>
<g id="18_2">
<path id="Vector_13" d="M263.699 179.076L307.455 254.275L220.329 254.194L176.621 178.887L263.699 179.076Z" fill="#F0EFEB"/>
<path id="Vector_14" d="M178.605 326.463L134.767 251.379L176.621 178.887L220.329 254.194L178.605 326.463Z" fill="#827E73"/>
<path id="Vector_15" d="M178.605 326.463L265.537 326.879L307.391 254.387L220.33 254.194L178.605 326.463Z" fill="#56544E"/>
</g>
<g id="17">
<path id="Vector_16" d="M176.688 178.747L220.448 253.964L133.312 253.877L89.6205 178.565L176.688 178.747Z" fill="#F0EFEB"/>
<path id="Vector_17" d="M91.5939 326.134L47.7672 251.057L89.6206 178.565L133.312 253.877L91.5939 326.134Z" fill="#827E73"/>
<path id="Vector_18" d="M91.594 326.134L178.537 326.557L220.39 254.065L133.312 253.876L91.594 326.134Z" fill="#56544E"/>
</g>
<g id="16">
<path id="Vector_19" d="M219.688 252.747L263.448 327.964L176.312 327.877L132.62 252.565L219.688 252.747Z" fill="#F0EFEB"/>
<path id="Vector_20" d="M134.594 400.134L90.7672 325.057L132.621 252.565L176.312 327.877L134.594 400.134Z" fill="#827E73"/>
<path id="Vector_21" d="M134.594 400.134L221.537 400.557L263.39 328.065L176.312 327.876L134.594 400.134Z" fill="#56544E"/>
</g>
<g id="15">
<path id="Vector_22" d="M534.699 601.753L578.448 676.964L491.323 676.883L447.62 601.565L534.699 601.753Z" fill="#F0EFEB"/>
<path id="Vector_23" d="M449.605 749.14L405.767 674.057L447.621 601.565L491.323 676.883L449.605 749.14Z" fill="#827E73"/>
<path id="Vector_24" d="M449.605 749.141L536.537 749.557L578.391 677.065L491.323 676.883L449.605 749.141Z" fill="#56544E"/>
</g>
<g id="14">
<path id="Vector_25" d="M488.699 530.753L532.448 605.964L445.323 605.883L401.62 530.565L488.699 530.753Z" fill="#F0EFEB"/>
<path id="Vector_26" d="M403.605 678.14L359.767 603.057L401.621 530.565L445.323 605.883L403.605 678.14Z" fill="#827E73"/>
<path id="Vector_27" d="M403.605 678.141L490.537 678.557L532.391 606.065L445.323 605.883L403.605 678.141Z" fill="#56544E"/>
</g>
<g id="13">
<path id="Vector_28" d="M361.699 598.753L405.448 673.964L318.323 673.883L274.62 598.565L361.699 598.753Z" fill="#F0EFEB"/>
<path id="Vector_29" d="M276.605 746.14L232.767 671.057L274.621 598.565L318.323 673.883L276.605 746.14Z" fill="#827E73"/>
<path id="Vector_30" d="M276.605 746.141L363.537 746.557L405.391 674.065L318.323 673.883L276.605 746.141Z" fill="#56544E"/>
</g>
<g id="12">
<path id="Vector_31" d="M403.699 526.753L447.448 601.964L360.323 601.883L316.62 526.565L403.699 526.753Z" fill="#F0EFEB"/>
<path id="Vector_32" d="M318.605 674.14L274.767 599.057L316.621 526.565L360.323 601.883L318.605 674.14Z" fill="#827E73"/>
<path id="Vector_33" d="M318.605 674.141L405.537 674.557L447.391 602.065L360.323 601.883L318.605 674.141Z" fill="#56544E"/>
</g>
<g id="11">
<path id="Vector_34" d="M436.699 467.753L480.448 542.964L393.323 542.883L349.62 467.565L436.699 467.753Z" fill="#F0EFEB"/>
<path id="Vector_35" d="M351.605 615.14L307.767 540.057L349.621 467.565L393.323 542.883L351.605 615.14Z" fill="#827E73"/>
<path id="Vector_36" d="M351.605 615.141L438.537 615.557L480.391 543.065L393.323 542.883L351.605 615.141Z" fill="#56544E"/>
</g>
<g id="10">
<path id="Vector_37" d="M276.699 598.753L320.448 673.964L233.323 673.883L189.62 598.565L276.699 598.753Z" fill="#F0EFEB"/>
<path id="Vector_38" d="M191.605 746.14L147.767 671.057L189.621 598.565L233.323 673.883L191.605 746.14Z" fill="#827E73"/>
<path id="Vector_39" d="M191.605 746.141L278.537 746.557L320.391 674.065L233.323 673.883L191.605 746.141Z" fill="#56544E"/>
</g>
<g id="9">
<path id="Vector_40" d="M190.699 598.753L234.448 673.964L147.323 673.883L103.62 598.565L190.699 598.753Z" fill="#F0EFEB"/>
<path id="Vector_41" d="M105.605 746.14L61.7672 671.057L103.621 598.565L147.323 673.883L105.605 746.14Z" fill="#827E73"/>
<path id="Vector_42" d="M105.605 746.141L192.537 746.557L234.391 674.065L147.323 673.883L105.605 746.141Z" fill="#56544E"/>
</g>
<g id="8">
<path id="Vector_43" d="M650.282 399.329L694.043 474.546L606.906 474.459L563.215 399.147L650.282 399.329Z" fill="#F0EFEB"/>
<path id="Vector_44" d="M565.188 546.716L521.361 471.639L563.215 399.147L606.906 474.459L565.188 546.716Z" fill="#827E73"/>
<path id="Vector_45" d="M565.188 546.716L652.131 547.139L693.985 474.647L606.906 474.458L565.188 546.716Z" fill="#56544E"/>
</g>
<g id="7">
<path id="Vector_46" d="M563.688 399.329L607.448 474.546L520.312 474.459L476.62 399.147L563.688 399.329Z" fill="#F0EFEB"/>
<path id="Vector_47" d="M478.594 546.716L434.767 471.639L476.621 399.147L520.312 474.459L478.594 546.716Z" fill="#827E73"/>
<path id="Vector_48" d="M478.594 546.716L565.537 547.139L607.39 474.647L520.312 474.458L478.594 546.716Z" fill="#56544E"/>
</g>
<g id="6">
<path id="Vector_49" d="M478.688 399.329L522.448 474.546L435.312 474.459L391.62 399.147L478.688 399.329Z" fill="#F0EFEB"/>
<path id="Vector_50" d="M393.594 546.716L349.767 471.639L391.621 399.147L435.312 474.459L393.594 546.716Z" fill="#827E73"/>
<path id="Vector_51" d="M393.594 546.716L480.537 547.139L522.39 474.647L435.312 474.458L393.594 546.716Z" fill="#56544E"/>
</g>
<g id="5">
<path id="Vector_52" d="M227.699 533.753L271.448 608.964L184.323 608.883L140.62 533.565L227.699 533.753Z" fill="#F0EFEB"/>
<path id="Vector_53" d="M142.605 681.14L98.7672 606.057L140.621 533.565L184.323 608.883L142.605 681.14Z" fill="#827E73"/>
<path id="Vector_54" d="M142.605 681.141L229.537 681.557L271.391 609.065L184.323 608.883L142.605 681.141Z" fill="#56544E"/>
</g>
<g id="4">
<path id="Vector_55" d="M264.808 468.806L308.558 544.017L221.432 543.936L177.73 468.618L264.808 468.806Z" fill="#F0EFEB"/>
<path id="Vector_56" d="M179.714 616.193L135.877 541.11L177.73 468.618L221.432 543.936L179.714 616.193Z" fill="#827E73"/>
<path id="Vector_57" d="M179.715 616.193L266.647 616.61L308.5 544.118L221.432 543.936L179.715 616.193Z" fill="#56544E"/>
</g>
<g id="3">
<path id="Vector_58" d="M261.324 323.829L305.084 399.046L217.947 398.959L174.256 323.647L261.324 323.829Z" fill="#F0EFEB"/>
<path id="Vector_59" d="M176.23 471.216L132.403 396.139L174.256 323.647L217.948 398.959L176.23 471.216Z" fill="#827E73"/>
<path id="Vector_60" d="M176.23 471.216L263.173 471.639L305.026 399.147L217.948 398.958L176.23 471.216Z" fill="#56544E"/>
</g>
<g id="2">
<path id="Vector_61" d="M392.094 399.329L435.854 474.546L348.717 474.459L305.026 399.147L392.094 399.329Z" fill="#F0EFEB"/>
<path id="Vector_62" d="M307 546.716L263.173 471.639L305.026 399.147L348.718 474.459L307 546.716Z" fill="#827E73"/>
<path id="Vector_63" d="M307 546.716L393.943 547.139L435.796 474.647L348.718 474.458L307 546.716Z" fill="#56544E"/>
</g>
<g id="1">
<path id="Vector_64" d="M305.309 398.658L349.064 473.857L261.939 473.776L218.23 398.469L305.309 398.658Z" fill="#F0EFEB"/>
<path id="Vector_65" d="M220.214 546.045L176.377 470.961L218.23 398.469L261.939 473.776L220.214 546.045Z" fill="#827E73"/>
<path id="Vector_66" d="M220.215 546.045L307.147 546.462L349 473.969L261.939 473.776L220.215 546.045Z" fill="#56544E"/>
</g>
</g>
</g>
</svg>
