<svg width="280" height="72" viewBox="0 0 280 72" fill="none" xmlns="http://www.w3.org/2000/svg">
<path d="M53.01 11.7C53.01 11.82 52.95 11.97 52.83 12.15C52.77 12.27 51.9 13.95 50.22 17.19C48.36 20.67 43.47 29.76 35.55 44.46C44.43 41.16 52.38 36.24 59.4 29.7C66.42 23.1 69.93 17.31 69.93 12.33C69.93 9.63 68.61 7.41 65.97 5.67C63.33 3.93 59.34 3.06 54 3.06C48.66 3.06 42.9 4.2 36.72 6.48C30.6 8.7 25.2 11.37 20.52 14.49C15.84 17.61 11.94 20.82 8.82 24.12C5.64 27.42 4.05 30.12 4.05 32.22C4.05 34.56 5.94 35.73 9.72 35.73C13.44 35.73 17.7 34.5 22.5 32.04C27.36 29.52 31.71 26.19 35.55 22.05C36.21 21.27 36.63 20.88 36.81 20.88C37.23 20.88 37.44 21.09 37.44 21.51C37.44 21.63 37.23 22.05 36.81 22.77C34.83 25.77 30.42 29.31 23.58 33.39C16.8 37.41 11.19 39.42 6.75 39.42C2.25 39.42 0 38.01 0 35.19C0 32.67 1.8 29.43 5.4 25.47C8.94 21.45 13.38 17.55 18.72 13.77C24.06 9.99 30.27 6.75 37.35 4.05C44.43 1.35 50.94 0 56.88 0C62.88 0 67.29 0.960001 70.11 2.88C72.93 4.74 74.34 7.17 74.34 10.17C74.34 15.39 71.01 21.33 64.35 27.99C57.75 34.65 49.77 39.99 40.41 44.01C46.47 44.07 51.51 46.71 55.53 51.93C59.55 57.09 61.59 63.09 61.65 69.93C61.65 70.77 61.5 71.19 61.2 71.19C60.72 71.19 60.39 70.65 60.21 69.57C60.03 68.55 59.82 67.53 59.58 66.51C59.34 65.49 58.59 63.69 57.33 61.11C56.13 58.53 54.69 56.25 53.01 54.27C51.39 52.29 49.02 50.49 45.9 48.87C42.78 47.25 39.27 46.44 35.37 46.44H34.38C30.06 54.3 26.43 60.81 23.49 65.97C23.13 66.75 22.47 67.35 21.51 67.77C20.55 68.19 19.8 68.4 19.26 68.4C18.78 68.4 18.54 68.25 18.54 67.95L29.61 47.79C27.21 48.39 24.75 48.84 22.23 49.14C21.15 49.14 20.61 48.96 20.61 48.6C20.61 47.94 20.94 47.58 21.6 47.52C24.36 47.34 27.36 46.83 30.6 45.99L48.69 13.05C48.87 12.57 49.41 12.18 50.31 11.88C51.21 11.52 51.96 11.34 52.56 11.34L53.01 11.7Z" fill="#EDEDEF"/>
<path d="M80.7708 40.32C81.6708 40.32 82.1208 40.77 82.1208 41.67C82.1208 42.57 81.7008 43.5 80.8608 44.46C80.0208 45.36 79.0908 45.81 78.0708 45.81C77.2308 45.81 76.8108 45.24 76.8108 44.1C76.8108 42.9 77.2908 41.97 78.2508 41.31C79.2108 40.65 80.0508 40.32 80.7708 40.32ZM72.3108 52.2C72.6108 51.72 73.0308 51.48 73.5708 51.48C74.1108 51.48 74.6508 51.75 75.1908 52.29C75.1908 52.53 74.8008 53.07 74.0208 53.91C73.2408 54.75 71.9208 56.64 70.0608 59.58C68.2008 62.46 67.2708 64.38 67.2708 65.34C67.2708 65.94 67.7208 66.3 68.6208 66.42C69.8208 66.42 71.6808 65.85 74.2008 64.71C76.7208 63.51 78.9408 62.31 80.8608 61.11L83.7408 59.31C83.8008 59.43 83.8308 59.67 83.8308 60.03C83.8308 60.39 83.5608 60.69 83.0208 60.93C74.9208 66.45 69.2808 69.21 66.1008 69.21C64.5408 69.21 63.7608 68.43 63.7608 66.87C63.7608 65.31 64.6008 63.15 66.2808 60.39C68.0208 57.57 70.0308 54.84 72.3108 52.2Z" fill="#EDEDEF"/>
<path d="M93.0663 65.25C95.9463 64.05 99.0363 62.43 102.336 60.39L104.046 59.31C104.106 59.43 104.136 59.67 104.136 60.03C104.136 60.39 103.866 60.69 103.326 60.93C100.146 63.09 96.9663 64.98 93.7863 66.6C90.6063 68.22 87.6663 69.03 84.9663 69.03C81.5463 69.03 79.8363 67.8 79.8363 65.34C79.8363 62.4 81.8763 59.1 85.9563 55.44C90.0963 51.72 94.1763 49.86 98.1963 49.86C99.8763 49.86 100.716 50.58 100.716 52.02C100.716 52.86 99.9663 53.91 98.4663 55.17C96.3663 56.91 95.0463 57.78 94.5063 57.78C93.9663 57.78 93.6963 57.54 93.6963 57.06C93.6963 56.88 93.8163 56.7 94.0563 56.52C94.6563 56.16 95.3163 55.62 96.0363 54.9C96.8163 54.12 97.2063 53.46 97.2063 52.92C97.2063 52.08 96.8163 51.66 96.0363 51.66C94.3563 51.66 91.8963 53.19 88.6563 56.25C85.4163 59.25 83.7963 61.68 83.7963 63.54C83.7963 65.64 84.9363 66.69 87.2163 66.69C88.7163 66.69 90.3663 66.33 92.1663 65.61L93.0663 65.25Z" fill="#EDEDEF"/>
<path d="M122.819 63.63L130.199 59.31C130.259 59.43 130.289 59.67 130.289 60.03C130.289 60.39 130.019 60.69 129.479 60.93C121.319 66.39 115.499 69.12 112.019 69.12C109.019 69.12 107.519 67.14 107.519 63.18C107.519 61.56 107.789 60.09 108.329 58.77C108.869 57.39 109.739 56.7 110.939 56.7C115.079 56.7 118.289 56.07 120.569 54.81C122.909 53.55 124.079 52.26 124.079 50.94C124.079 49.56 123.119 48.87 121.199 48.87C116.879 48.87 111.389 52.77 104.729 60.57C102.689 64.41 101.159 67.35 100.139 69.39C99.8391 69.93 99.4191 70.2 98.8791 70.2C97.6791 70.2 97.0791 69.78 97.0791 68.94C97.0791 68.58 97.1991 68.16 97.4391 67.68L105.449 53.64C110.549 44.64 115.769 36.54 121.109 29.34C126.449 22.14 130.469 18.54 133.169 18.54C134.069 18.54 134.699 18.96 135.059 19.8C135.239 20.1 135.329 20.46 135.329 20.88C135.329 23.04 133.469 26.43 129.749 31.05C126.029 35.67 122.549 39.57 119.309 42.75C116.069 45.93 112.769 49.02 109.409 52.02L106.889 56.52C113.369 49.92 119.009 46.62 123.809 46.62C126.569 46.62 127.949 47.52 127.949 49.32C127.949 51.3 126.389 53.28 123.269 55.26C120.209 57.24 116.369 58.23 111.749 58.23C111.089 59.19 110.759 60.27 110.759 61.47C110.759 64.83 112.079 66.51 114.719 66.51C116.639 66.51 119.249 65.61 122.549 63.81C122.669 63.69 122.759 63.63 122.819 63.63ZM132.359 21.87C132.359 21.27 132.209 20.97 131.909 20.97C128.609 20.97 121.739 30.15 111.299 48.51C116.579 43.65 121.409 38.7 125.789 33.66C130.169 28.56 132.359 24.63 132.359 21.87Z" fill="#EDEDEF"/>
<path d="M180.943 4.41C181.243 4.41 181.453 4.59 181.573 4.95C181.573 5.43 181.213 5.73 180.493 5.85C177.133 6.99 173.533 9.06 169.693 12.06C165.913 15.06 162.313 18.69 158.893 22.95C155.533 27.15 152.713 32.13 150.433 37.89C148.213 43.65 147.103 49.47 147.103 55.35C147.103 63.33 149.923 67.32 155.563 67.32C158.863 67.32 162.703 65.88 167.083 63C171.523 60.06 175.663 56.4 179.503 52.02C183.403 47.58 186.703 42.39 189.403 36.45C192.103 30.51 193.453 24.81 193.453 19.35C193.453 13.83 191.563 11.07 187.783 11.07C184.723 11.07 181.123 12.72 176.983 16.02C172.843 19.26 169.213 23.4 166.093 28.44C163.033 33.42 161.503 38.13 161.503 42.57C161.503 46.95 163.033 49.14 166.093 49.14C168.013 49.14 170.173 48.24 172.573 46.44C175.033 44.58 177.223 42.12 179.143 39.06C179.383 38.58 179.653 38.34 179.953 38.34C180.313 38.34 180.493 38.52 180.493 38.88C180.493 40.56 178.393 43.2 174.193 46.8C170.053 50.4 166.483 52.2 163.483 52.2C159.943 52.2 158.173 49.35 158.173 43.65C158.173 39.21 160.033 34.17 163.753 28.53C167.473 22.83 171.853 18.03 176.893 14.13C181.933 10.23 186.283 8.28 189.943 8.28C194.743 8.28 197.143 11.85 197.143 18.99C197.143 24.39 195.583 30.21 192.463 36.45C189.343 42.63 185.533 48.15 181.033 53.01C176.593 57.81 171.823 61.83 166.723 65.07C161.623 68.31 157.153 69.93 153.313 69.93C146.653 69.93 143.323 65.19 143.323 55.71C143.323 49.95 144.463 44.28 146.743 38.7C149.023 33.06 151.783 28.26 155.023 24.3C158.323 20.34 161.773 16.8 165.373 13.68C169.033 10.56 172.243 8.25 175.003 6.75C177.823 5.19 179.803 4.41 180.943 4.41Z" fill="#EDEDEF"/>
<path d="M184.686 52.29L181.896 53.46C181.776 53.46 181.716 53.37 181.716 53.19C181.716 52.65 182.376 51.99 183.696 51.21C185.076 50.43 186.186 50.04 187.026 50.04C187.926 50.04 188.376 50.64 188.376 51.84C188.376 53.88 187.716 57.42 186.396 62.46C186.456 62.52 186.516 62.55 186.576 62.55C191.796 58.29 195.276 55.29 197.016 53.55C198.756 51.81 199.926 50.94 200.526 50.94C201.186 50.94 201.516 51.27 201.516 51.93C201.516 52.59 200.826 54.93 199.446 58.95C198.066 62.91 197.376 65.16 197.376 65.7L198.726 64.53C201.426 62.07 204.036 59.52 206.556 56.88C205.236 56.7 204.576 55.95 204.576 54.63C204.576 52.47 205.776 50.28 208.176 48.06C210.636 45.78 212.646 44.64 214.206 44.64C214.986 44.64 215.376 45.03 215.376 45.81C215.376 47.73 213.426 50.91 209.526 55.35H210.156C211.416 55.35 213.696 54.21 216.996 51.93L218.616 50.76C218.736 50.76 218.796 50.91 218.796 51.21C218.796 51.51 218.646 51.78 218.346 52.02C214.626 55.02 211.206 56.67 208.086 56.97C205.266 60.03 202.296 62.88 199.176 65.52C196.056 68.1 194.136 69.39 193.416 69.39C192.756 69.39 192.426 69.09 192.426 68.49C192.426 68.25 192.546 67.89 192.786 67.41C193.026 66.87 193.656 64.98 194.676 61.74C195.696 58.5 196.176 56.82 196.116 56.7C196.116 56.52 196.086 56.43 196.026 56.43C195.846 56.43 195.606 56.58 195.306 56.88L183.696 66.51C182.436 67.71 181.536 68.31 180.996 68.31C180.456 68.13 180.186 67.95 180.186 67.77C180.186 67.53 180.426 66.96 180.906 66.06C181.386 65.1 182.166 63 183.246 59.76C184.386 56.46 184.956 54.39 184.956 53.55C184.956 52.71 184.866 52.29 184.686 52.29ZM212.316 47.88C212.316 47.52 212.016 47.34 211.416 47.34C210.816 47.34 209.916 48 208.716 49.32C207.516 50.58 206.916 51.99 206.916 53.55C206.916 54.33 207.366 54.84 208.266 55.08C210.966 51.84 212.316 49.44 212.316 47.88Z" fill="#EDEDEF"/>
<path d="M217.709 59.04C214.109 59.04 212.309 58.26 212.309 56.7C212.309 54.84 214.439 52.65 218.699 50.13C222.959 47.55 226.799 46.26 230.219 46.26C231.959 46.26 232.829 46.8 232.829 47.88C232.829 48.48 232.379 49.14 231.479 49.86C230.579 50.58 229.709 51.15 228.869 51.57C228.029 51.99 227.549 52.2 227.429 52.2C227.069 52.2 226.829 52.05 226.709 51.75C226.589 51.33 226.889 50.91 227.609 50.49C228.389 50.01 228.779 49.5 228.779 48.96C228.779 48.42 228.089 48.15 226.709 48.15C225.389 48.15 223.289 49.11 220.409 51.03C217.529 52.89 216.089 54.42 216.089 55.62C216.089 56.52 217.139 56.97 219.239 56.97C219.599 56.97 220.259 56.94 221.219 56.88C222.179 56.82 222.659 56.94 222.659 57.24C222.659 57.54 221.159 58.62 218.159 60.48C215.219 62.34 213.749 63.93 213.749 65.25C213.749 66.75 214.709 67.5 216.629 67.5C218.609 67.5 220.829 66.99 223.289 65.97C227.249 64.23 230.849 62.37 234.089 60.39L235.799 59.31C235.859 59.43 235.889 59.67 235.889 60.03C235.889 60.39 235.619 60.69 235.079 60.93C231.899 63.09 228.419 65.16 224.639 67.14C220.859 69.06 217.439 70.02 214.379 70.02C211.379 70.02 209.879 69.03 209.879 67.05C209.879 65.01 212.489 62.34 217.709 59.04Z" fill="#EDEDEF"/>
<path d="M233.147 60.93C234.287 60.27 235.787 59.22 237.647 57.78C242.207 54.18 244.637 52.38 244.937 52.38C245.837 52.38 246.287 52.77 246.287 53.55C246.287 54.33 245.807 55.53 244.847 57.15C243.947 58.77 242.897 60.45 241.697 62.19C240.557 63.93 239.897 64.98 239.717 65.34C239.777 65.4 239.897 65.43 240.077 65.43C240.317 65.43 241.517 64.65 243.677 63.09C245.837 61.47 248.087 59.79 250.427 58.05C252.767 56.25 254.147 55.23 254.567 54.99C254.987 54.69 255.377 54.54 255.737 54.54C256.457 54.6 256.817 55.02 256.817 55.8C256.817 56.1 255.797 57.63 253.757 60.39C251.717 63.09 250.697 64.83 250.697 65.61C250.697 66.15 251.327 66.42 252.587 66.42C253.907 66.42 255.827 65.85 258.347 64.71C260.867 63.51 263.087 62.31 265.007 61.11L267.887 59.31C267.947 59.43 267.977 59.67 267.977 60.03C267.977 60.39 267.707 60.69 267.167 60.93C259.067 66.45 253.427 69.21 250.247 69.21C248.387 69.21 247.457 68.49 247.457 67.05C247.457 65.67 247.847 64.35 248.627 63.09C249.467 61.83 250.187 60.78 250.787 59.94C251.387 59.04 251.687 58.56 251.687 58.5C248.927 60.48 245.657 62.85 241.877 65.61C238.097 68.37 235.967 69.75 235.487 69.75C235.127 69.75 234.947 69.33 234.947 68.49C234.947 67.65 236.117 65.46 238.457 61.92C240.857 58.38 242.057 56.49 242.057 56.25C242.057 56.01 241.997 55.89 241.877 55.89L240.977 56.34L236.477 59.94C236.177 60.18 235.607 60.57 234.767 61.11C233.927 61.65 233.387 61.92 233.147 61.92C232.967 61.92 232.877 61.8 232.877 61.56C232.877 61.26 232.967 61.05 233.147 60.93Z" fill="#EDEDEF"/>
<path d="M270.893 57.96C268.013 60.6 266.183 61.92 265.403 61.92C265.163 61.92 265.043 61.8 265.043 61.56C265.043 61.32 265.133 61.11 265.313 60.93C266.753 60.15 268.433 58.89 270.353 57.15C270.053 56.43 269.903 55.65 269.903 54.81C269.903 52.77 270.953 50.82 273.053 48.96C275.153 47.1 276.923 46.17 278.363 46.17C279.143 46.17 279.533 46.56 279.533 47.34C279.533 48.06 278.333 49.86 275.933 52.74C275.693 53.04 275.423 53.34 275.123 53.64C274.823 53.94 274.493 54.3 274.133 54.72C273.833 55.08 273.593 55.35 273.413 55.53C273.713 55.83 274.253 56.37 275.033 57.15C275.813 57.87 276.443 58.47 276.923 58.95C278.243 60.27 278.903 61.92 278.903 63.9C278.903 65.88 277.673 67.59 275.213 69.03C272.753 70.53 270.173 71.28 267.473 71.28C264.833 71.28 263.513 70.47 263.513 68.85C263.513 67.29 264.743 65.85 267.203 64.53C269.663 63.21 272.243 62.31 274.943 61.83C274.583 61.35 273.893 60.72 272.873 59.94C271.913 59.16 271.253 58.5 270.893 57.96ZM275.573 62.91C273.533 63.15 271.613 63.72 269.813 64.62C268.013 65.46 267.113 66.48 267.113 67.68C267.113 68.82 267.923 69.39 269.543 69.39C271.223 69.39 272.693 69 273.953 68.22C275.273 67.44 275.933 66.57 275.933 65.61C275.933 64.65 275.813 63.75 275.573 62.91ZM272.783 54.81L275.123 52.29C276.683 50.43 277.463 49.32 277.463 48.96C277.463 48.54 277.283 48.33 276.923 48.33C275.903 48.33 274.853 48.84 273.773 49.86C272.693 50.82 272.153 51.78 272.153 52.74C272.153 53.64 272.363 54.33 272.783 54.81Z" fill="#EDEDEF"/>
</svg>
